<svg xmlns="http://www.w3.org/2000/svg" viewBox="0 0 5965 1584" width="5965" height="1584">
<g fill="#F9441D" fill-rule="nonzero" transform="translate(122, 1439) scale(1,-1)">
<g transform="translate(0,0)"><path d="M1027 901Q1027 792 993.0 708.0Q959 624 894.0 566.5Q829 509 734.5 479.0Q640 449 512 449H404V36Q404 26 397.5 18.0Q391 10 376.0 5.0Q361 0 336.0 -3.0Q311 -6 272 -6Q234 -6 208.5 -3.0Q183 0 168.0 5.0Q153 10 147.0 18.0Q141 26 141 36V1200Q141 1247 165.5 1270.5Q190 1294 230 1294H535Q581 1294 622.5 1290.5Q664 1287 722.0 1275.5Q780 1264 839.5 1233.0Q899 1202 941.0 1154.5Q983 1107 1005.0 1043.5Q1027 980 1027 901ZM752 882Q752 950 728.0 994.0Q704 1038 669.0 1059.0Q634 1080 595.5 1085.5Q557 1091 516 1091H404V652H522Q585 652 627.5 669.0Q670 686 697.0 716.5Q724 747 738.0 789.5Q752 832 752 882Z"/></g>
<g transform="translate(1090,0)"><path d="M405 36Q405 26 398.5 18.0Q392 10 377.0 5.0Q362 0 337.0 -3.0Q312 -6 273 -6Q235 -6 209.5 -3.0Q184 0 169.0 5.0Q154 10 147.5 18.0Q141 26 141 36V1258Q141 1268 147.5 1276.0Q154 1284 169.5 1289.0Q185 1294 210.0 1297.0Q235 1300 273 1300Q312 1300 337.0 1297.0Q362 1294 377.0 1289.0Q392 1284 398.5 1276.0Q405 1268 405 1258Z"/></g>
<g transform="translate(1636,0)"><path d="M852 110Q852 80 849.5 59.5Q847 39 842.0 25.5Q837 12 829.5 6.0Q822 0 812 0H219Q186 0 163.5 19.5Q141 39 141 83V1258Q141 1268 147.5 1276.0Q154 1284 169.0 1289.0Q184 1294 209.5 1297.0Q235 1300 273 1300Q312 1300 337.0 1297.0Q362 1294 377.0 1289.0Q392 1284 398.5 1276.0Q405 1268 405 1258V217H812Q822 217 829.5 211.5Q837 206 842.0 193.5Q847 181 849.5 160.5Q852 140 852 110Z"/></g>
<g transform="translate(2502,0)"><path d="M852 110Q852 80 849.5 59.5Q847 39 842.0 25.5Q837 12 829.5 6.0Q822 0 812 0H219Q186 0 163.5 19.5Q141 39 141 83V1258Q141 1268 147.5 1276.0Q154 1284 169.0 1289.0Q184 1294 209.5 1297.0Q235 1300 273 1300Q312 1300 337.0 1297.0Q362 1294 377.0 1289.0Q392 1284 398.5 1276.0Q405 1268 405 1258V217H812Q822 217 829.5 211.5Q837 206 842.0 193.5Q847 181 849.5 160.5Q852 140 852 110Z"/></g>
<g transform="translate(3368,0)"><path d="M1305 662Q1305 501 1265.0 374.0Q1225 247 1146.0 158.5Q1067 70 950.5 23.5Q834 -23 681 -23Q530 -23 417.5 16.5Q305 56 230.0 137.0Q155 218 117.5 343.0Q80 468 80 639Q80 796 120.0 921.5Q160 1047 239.0 1135.0Q318 1223 434.5 1270.0Q551 1317 705 1317Q852 1317 964.5 1278.0Q1077 1239 1152.5 1158.0Q1228 1077 1266.5 953.5Q1305 830 1305 662ZM1029 648Q1029 750 1013.0 833.5Q997 917 958.5 976.5Q920 1036 856.0 1068.5Q792 1101 696 1101Q599 1101 534.0 1064.5Q469 1028 429.0 967.0Q389 906 372.5 824.5Q356 743 356 652Q356 546 372.0 461.5Q388 377 426.0 317.0Q464 257 528.0 225.5Q592 194 689 194Q786 194 851.0 230.0Q916 266 956.0 328.0Q996 390 1012.5 472.5Q1029 555 1029 648Z"/></g>
<g transform="translate(4753,0)"><path d="M908 388Q908 286 870.0 209.0Q832 132 767.0 80.5Q702 29 615.0 3.0Q528 -23 429 -23Q362 -23 304.5 -12.0Q247 -1 203.0 14.5Q159 30 129.5 47.0Q100 64 87.0 77.0Q74 90 68.5 114.5Q63 139 63 185Q63 216 65.0 237.0Q67 258 71.5 271.0Q76 284 83.5 289.5Q91 295 101 295Q115 295 140.5 278.5Q166 262 206.0 242.0Q246 222 301.5 205.5Q357 189 430 189Q478 189 516.0 200.5Q554 212 580.5 233.0Q607 254 621.0 285.0Q635 316 635 354Q635 398 611.0 429.5Q587 461 548.5 485.5Q510 510 461.0 531.5Q412 553 360.0 577.0Q308 601 259.0 631.5Q210 662 171.5 704.5Q133 747 109.0 805.0Q85 863 85 944Q85 1037 119.5 1107.5Q154 1178 212.5 1224.5Q271 1271 350.5 1294.0Q430 1317 519 1317Q565 1317 611.0 1310.0Q657 1303 697.0 1291.0Q737 1279 768.0 1264.0Q799 1249 809.0 1239.0Q819 1229 822.5 1222.0Q826 1215 828.5 1203.5Q831 1192 832.0 1174.5Q833 1157 833 1131Q833 1102 831.5 1082.0Q830 1062 826.5 1049.0Q823 1036 816.5 1030.0Q810 1024 799 1024Q788 1024 764.0 1038.0Q740 1052 705.0 1068.5Q670 1085 624.0 1098.5Q578 1112 523 1112Q480 1112 448.0 1101.5Q416 1091 394.5 1072.5Q373 1054 362.5 1028.0Q352 1002 352 973Q352 930 375.5 898.5Q399 867 438.5 842.5Q478 818 528.0 796.5Q578 775 630.0 751.0Q682 727 732.0 696.5Q782 666 821.0 623.5Q860 581 884.0 523.5Q908 466 908 388Z"/></g>
</g></svg>